<svg xmlns="http://www.w3.org/2000/svg" xmlns:xlink="http://www.w3.org/1999/xlink" fill="none" version="1.1" width="511.9999694824219" height="511.9999694824219" viewBox="0 0 511.9999694824219 511.9999694824219"><defs><clipPath id="master_svg0_23_080"><rect x="0" y="0" width="511.9999694824219" height="511.9999694824219" rx="0"/></clipPath></defs><g style="mix-blend-mode:passthrough" clip-path="url(#master_svg0_23_080)"><g style="mix-blend-mode:passthrough"><g><path d="M460.73246789550785,210.17648315429688L460.73246789550785,437.9544831542969C460.73246789550785,450.5344831542969,450.5344678955078,460.7324831542969,437.95446789550783,460.7324831542969L210.1764678955078,460.7324831542969L210.1764678955078,210.17648315429688L460.73246789550785,210.17648315429688Z" fill="#41B883" fill-opacity="1"/></g><g><path d="M51,210.17648315429688L51,437.9544831542969C51,450.5344831542969,61.198,460.7324831542969,73.7778,460.7324831542969L164.889,460.7324831542969L164.889,210.17648315429688L51,210.17648315429688Z" fill="#35495E" fill-opacity="1"/></g><g><path d="M51,164.889L461,164.889L461,73.7778C461,61.198,450.802,51,438.222,51L73.7778,51C61.198,51,51,61.198,51,73.7778L51,164.889Z" fill="#35495E" fill-opacity="1"/></g><g><path d="M260.8235168457031,270.4705984325566L335.9680168457031,399.88059631347653L410.49151684570313,270.47060055163655L364.5355168457031,270.47060055163655L335.9680168457031,320.24379631347654L306.77971684570315,270.47059631347656L260.8235168457031,270.4705984325566Z" fill="#35495E" fill-opacity="1"/></g></g></g></svg>